<mxfile host="app.diagrams.net" agent="Mozilla/5.0 (Windows NT 10.0; Win64; x64) AppleWebKit/537.36 (KHTML, like Gecko) Chrome/138.0.0.0 Safari/537.36" version="24.8.4">
  <diagram name="Seite-1" id="PbCc_y1WBwQMMXHwgZae">
    <mxGraphModel dx="830" dy="455" grid="1" gridSize="10" guides="1" tooltips="1" connect="1" arrows="1" fold="1" page="1" pageScale="1" pageWidth="827" pageHeight="1169" math="0" shadow="0">
      <root>
        <mxCell id="0" />
        <mxCell id="1" parent="0" />
        <mxCell id="KfbELKjPDm21NCQ0_by3-3" value="" style="edgeStyle=orthogonalEdgeStyle;rounded=0;orthogonalLoop=1;jettySize=auto;html=1;" edge="1" parent="1" source="KfbELKjPDm21NCQ0_by3-1" target="KfbELKjPDm21NCQ0_by3-2">
          <mxGeometry relative="1" as="geometry" />
        </mxCell>
        <mxCell id="KfbELKjPDm21NCQ0_by3-1" value="Admin User" style="rounded=1;whiteSpace=wrap;html=1;" vertex="1" parent="1">
          <mxGeometry x="360" y="40" width="120" height="60" as="geometry" />
        </mxCell>
        <mxCell id="KfbELKjPDm21NCQ0_by3-7" value="" style="edgeStyle=orthogonalEdgeStyle;rounded=0;orthogonalLoop=1;jettySize=auto;html=1;" edge="1" parent="1" source="KfbELKjPDm21NCQ0_by3-2" target="KfbELKjPDm21NCQ0_by3-6">
          <mxGeometry relative="1" as="geometry" />
        </mxCell>
        <mxCell id="KfbELKjPDm21NCQ0_by3-9" value="Supabase SDK" style="edgeLabel;html=1;align=center;verticalAlign=middle;resizable=0;points=[];" vertex="1" connectable="0" parent="KfbELKjPDm21NCQ0_by3-7">
          <mxGeometry x="-0.1581" relative="1" as="geometry">
            <mxPoint as="offset" />
          </mxGeometry>
        </mxCell>
        <mxCell id="KfbELKjPDm21NCQ0_by3-2" value="Admin Frontend" style="rounded=1;whiteSpace=wrap;html=1;" vertex="1" parent="1">
          <mxGeometry x="360" y="141" width="120" height="60" as="geometry" />
        </mxCell>
        <mxCell id="KfbELKjPDm21NCQ0_by3-5" value="" style="edgeStyle=orthogonalEdgeStyle;rounded=0;orthogonalLoop=1;jettySize=auto;html=1;" edge="1" parent="1" source="KfbELKjPDm21NCQ0_by3-4" target="KfbELKjPDm21NCQ0_by3-2">
          <mxGeometry relative="1" as="geometry" />
        </mxCell>
        <mxCell id="KfbELKjPDm21NCQ0_by3-4" value="React + Tailwind" style="text;html=1;align=center;verticalAlign=middle;whiteSpace=wrap;rounded=0;" vertex="1" parent="1">
          <mxGeometry x="500" y="156" width="90" height="30" as="geometry" />
        </mxCell>
        <mxCell id="KfbELKjPDm21NCQ0_by3-11" value="" style="edgeStyle=orthogonalEdgeStyle;rounded=0;orthogonalLoop=1;jettySize=auto;html=1;" edge="1" parent="1" source="KfbELKjPDm21NCQ0_by3-6" target="KfbELKjPDm21NCQ0_by3-10">
          <mxGeometry relative="1" as="geometry" />
        </mxCell>
        <mxCell id="KfbELKjPDm21NCQ0_by3-6" value="Public Portfolio UI (Astro, SSG)" style="rounded=1;whiteSpace=wrap;html=1;" vertex="1" parent="1">
          <mxGeometry x="360" y="240" width="120" height="60" as="geometry" />
        </mxCell>
        <mxCell id="KfbELKjPDm21NCQ0_by3-10" value="Supabase (Procets)&lt;div&gt;+ Auth&lt;/div&gt;&lt;div&gt;+ DB (PostgreSQL)&lt;/div&gt;&lt;div&gt;+ Storage&lt;/div&gt;" style="rounded=1;whiteSpace=wrap;html=1;align=left;" vertex="1" parent="1">
          <mxGeometry x="520" y="240" width="120" height="60" as="geometry" />
        </mxCell>
        <mxCell id="KfbELKjPDm21NCQ0_by3-13" value="" style="edgeStyle=orthogonalEdgeStyle;rounded=0;orthogonalLoop=1;jettySize=auto;html=1;" edge="1" parent="1" source="KfbELKjPDm21NCQ0_by3-12" target="KfbELKjPDm21NCQ0_by3-6">
          <mxGeometry relative="1" as="geometry" />
        </mxCell>
        <mxCell id="KfbELKjPDm21NCQ0_by3-12" value="Portfolio Viewer" style="rounded=1;whiteSpace=wrap;html=1;align=center;" vertex="1" parent="1">
          <mxGeometry x="200" y="240" width="120" height="60" as="geometry" />
        </mxCell>
      </root>
    </mxGraphModel>
  </diagram>
</mxfile>
